<mxfile host="app.diagrams.net" modified="2024-03-16T14:30:13.913Z" agent="Mozilla/5.0 (Macintosh; Intel Mac OS X 10_15_7) AppleWebKit/605.1.15 (KHTML, like Gecko) Version/17.3.1 Safari/605.1.15" etag="MDCZJ2UfDKoe6OLQl3Ok" version="24.0.7" type="github" pages="2">
  <diagram name="Page-1" id="4yYHArnrtynO087Kgy8o">
    <mxGraphModel dx="4510" dy="1553" grid="0" gridSize="10" guides="1" tooltips="1" connect="1" arrows="1" fold="1" page="0" pageScale="1" pageWidth="850" pageHeight="1100" math="0" shadow="0">
      <root>
        <mxCell id="0" />
        <mxCell id="1" parent="0" />
        <mxCell id="MyD3jom91IR0AbVZu7Pq-1" value="Run&#xa;command" style="sketch=0;outlineConnect=0;fontColor=#232F3E;gradientColor=none;strokeColor=#232F3E;fillColor=#ffffff;dashed=0;verticalLabelPosition=bottom;verticalAlign=top;align=center;html=1;fontSize=12;fontStyle=0;aspect=fixed;shape=mxgraph.aws4.resourceIcon;resIcon=mxgraph.aws4.run_command;" parent="1" vertex="1">
          <mxGeometry x="-2475" y="-128" width="137" height="137" as="geometry" />
        </mxCell>
        <mxCell id="85kLrdTVUX0SyqyYNL8v-2" value="" style="sketch=0;outlineConnect=0;fontColor=#232F3E;gradientColor=none;fillColor=#7AA116;strokeColor=none;dashed=0;verticalLabelPosition=bottom;verticalAlign=top;align=center;html=1;fontSize=12;fontStyle=0;aspect=fixed;pointerEvents=1;shape=mxgraph.aws4.backup_aws_backup_support_for_amazon_s3;" parent="1" vertex="1">
          <mxGeometry x="-152" y="811" width="688" height="688" as="geometry" />
        </mxCell>
      </root>
    </mxGraphModel>
  </diagram>
  <diagram id="nhjVMy8eFHXANsjnAsLQ" name="Page-2">
    <mxGraphModel dx="1120" dy="806" grid="1" gridSize="10" guides="1" tooltips="1" connect="1" arrows="1" fold="1" page="1" pageScale="1" pageWidth="850" pageHeight="1100" math="0" shadow="0">
      <root>
        <mxCell id="0" />
        <mxCell id="1" parent="0" />
      </root>
    </mxGraphModel>
  </diagram>
</mxfile>
